<?xml version="1.0" encoding="utf-8"?>
<!-- Generator: Adobe Illustrator 25.2.3, SVG Export Plug-In . SVG Version: 6.00 Build 0)  -->
<svg version="1.1" id="Capa_1" xmlns="http://www.w3.org/2000/svg" xmlns:xlink="http://www.w3.org/1999/xlink" x="0px" y="0px"
	 viewBox="0 0 595.28 841.89" style="enable-background:new 0 0 595.28 841.89;" xml:space="preserve">
<style type="text/css">
	.st0{fill:#D57E08;}
</style>
<path class="st0" d="M93.08,582.33c0-107.49,0-214.98,0-322.47c1.49-0.58,0.96-2.07,1.22-3.09c6.28-24.65,25.83-39.99,51.34-40
	c101.22-0.03,202.45-0.01,303.67-0.02c5.35,0,10.59,0.63,15.73,2.14c22.28,6.54,36.69,26.36,36.69,50.68
	c0.02,100.96,0.01,201.92,0.01,302.88c0,1.2-0.01,2.39-0.05,3.59c-0.75,22.78-16.69,42.38-38.77,47.9
	c-1.95,0.49-4.18-0.01-5.87,1.49c-27.67,0-55.34,0-83.01,0c0-45.62,0.03-91.24-0.07-136.87c-0.01-2.94,0.63-3.76,3.65-3.7
	c10.37,0.21,20.75-0.05,31.12,0.17c2.93,0.06,4.12-0.97,5.11-3.56c3.67-9.66,7.56-19.24,11.4-28.84
	c4.16-10.42,8.35-20.84,12.64-31.53c-1.93,0-3.39,0-4.85,0c-18.49,0-36.98-0.05-55.46,0.06c-2.57,0.01-3.65-0.29-3.62-3.31
	c0.17-15.56,0.04-31.12,0.1-46.69c0.04-9.19,3.31-12.76,12.41-13.71c1.85-0.19,3.72-0.18,5.58-0.18c9.98-0.02,19.95-0.12,29.93,0.06
	c2.7,0.05,3.22-0.8,3.21-3.32c-0.1-19.15-0.12-38.31,0.01-57.46c0.02-2.7-0.8-3.22-3.31-3.21c-15.83,0.11-31.66,0.04-47.48,0.06
	c-8.57,0.01-16.97,1.24-25.04,4.12c-31.89,11.38-51.73,39.43-51.92,73.31c-0.09,15.69-0.08,31.39,0.05,47.08
	c0.02,2.62-0.69,3.27-3.27,3.25c-14.9-0.13-29.79,0.01-44.69-0.13c-2.63-0.02-3.26,0.7-3.25,3.28c0.11,19.15,0.12,38.31,0,57.46
	c-0.02,2.63,0.7,3.27,3.28,3.25c14.63-0.13,29.26,0.06,43.89-0.15c3.35-0.05,4.07,0.82,4.06,4.1c-0.12,45.49-0.08,90.98-0.08,136.47
	c-53.74,0-107.49,0-161.23,0c-0.9-1.47-2.56-1.1-3.84-1.43c-18.18-4.75-30.21-16.13-36.7-33.61
	C94.65,587.74,94.76,584.76,93.08,582.33z"/>
</svg>
