<?xml version="1.0" encoding="utf-8"?>
<!-- Generator: Adobe Illustrator 25.2.3, SVG Export Plug-In . SVG Version: 6.00 Build 0)  -->
<svg version="1.1" id="Capa_1" xmlns="http://www.w3.org/2000/svg" xmlns:xlink="http://www.w3.org/1999/xlink" x="0px" y="0px"
	 viewBox="0 0 595.28 841.89" style="enable-background:new 0 0 595.28 841.89;" xml:space="preserve">
<style type="text/css">
	.st0{fill:#D57E08;}
</style>
<path class="st0" d="M385.65,676.92c-59.42,0-118.84,0-178.26,0c-1.3-2-3.31-0.92-4.95-1c-17.07-0.78-34.08-1.88-50.78-5.93
	c-42.14-10.21-73.43-34.09-92.12-73.52c-10.61-22.39-14.39-46.45-15.15-70.96c-2.12-68.36-2.14-136.72,0-205.08
	c0.52-16.59,2.26-33.07,6.69-49.16c11.9-43.19,38-73.96,79.78-90.87c23.27-9.41,47.81-11.63,72.59-12.44
	c51.26-1.68,102.53-1.16,153.79-0.76c27.66,0.21,55.47-0.01,82.74,5.8c44.23,9.42,77.3,33.61,96.65,75.01
	c12.41,26.55,15.18,55.1,15.27,83.95c0.18,58.58,0.17,117.17-0.02,175.75c-0.06,18.58-0.95,37.17-4.92,55.41
	c-11.47,52.65-42.21,88.11-93.95,104.49c-20.26,6.42-41.3,7.67-62.39,8.37C388.99,676.04,386.98,674.98,385.65,676.92z
	 M297.82,631.07c13.44,0,26.89,0.14,40.33-0.03c29.02-0.35,58.16,0.6,86.93-4.01c39.01-6.25,65.02-27.94,75.61-66.68
	c4.36-15.97,4.89-32.43,5.42-48.84c1.54-47.13,1.1-94.28,0.76-141.42c-0.18-24.88-0.11-49.8-3.7-74.53
	c-5.76-39.7-30.32-67.07-68.78-76.5c-18.19-4.46-36.83-4.76-55.38-5.12c-47.95-0.94-95.92-0.86-143.88-0.28
	c-22.38,0.27-44.85-0.04-66.96,4.17c-38.09,7.25-63.06,29.06-72.9,67.1c-4.53,17.49-4.82,35.46-5.31,53.36
	c-1.13,41.16-1.07,82.33-0.68,123.5c0.27,28.53-0.38,57.13,3.62,85.49c3.83,27.14,15.41,49.95,38.84,65.41
	c16.94,11.17,36.22,15.11,56.1,16.43C224.45,631.52,261.14,631.04,297.82,631.07z"/>
<path class="st0" d="M297.92,553.01c-72.31-0.14-130.98-58.85-130.97-131.06c0.01-72.23,58.81-130.97,131.04-130.92
	c72.39,0.05,130.94,58.65,130.9,130.99C428.86,494.34,370.05,553.15,297.92,553.01z M213.1,421.83
	c-0.11,46.92,37.55,84.83,84.46,85.02c47.18,0.2,85.16-37.54,85.26-84.72c0.11-46.93-37.51-84.8-84.46-85.03
	C251.24,336.87,213.21,374.66,213.1,421.83z"/>
<path class="st0" d="M433.97,255.31c17.08-0.06,30.61,13.41,30.62,30.48c0.02,17.01-13.59,30.61-30.59,30.57
	c-16.68-0.04-30.34-13.64-30.43-30.29C403.48,269.04,416.99,255.36,433.97,255.31z"/>
</svg>
