<?xml version="1.0" encoding="utf-8"?>
<!-- Generator: Adobe Illustrator 25.2.3, SVG Export Plug-In . SVG Version: 6.00 Build 0)  -->
<svg version="1.1" id="Capa_1" xmlns="http://www.w3.org/2000/svg" xmlns:xlink="http://www.w3.org/1999/xlink" x="0px" y="0px"
	 viewBox="0 0 595.28 841.89" style="enable-background:new 0 0 595.28 841.89;" xml:space="preserve">
<style type="text/css">
	.st0{fill:#D57E08;}
</style>
<path class="st0" d="M93.06,301.37c1.37-1.07,1.2-2.83,1.9-4.22c4.04-7.99,10.65-11.9,19.46-12.33c0.8-0.04,1.6-0.01,2.39-0.01
	c120.37,0,240.74,0,361.1,0c11.66,0,19.61,5.11,22.72,14.52c0.84,2.55,1.12,5.18,1.12,7.85c-0.01,75.94,0.01,151.88-0.02,227.82
	c-0.01,13.07-8.33,21.67-21.43,22.36c-1.33,0.07-2.66,0.01-3.99,0.01c-118.37,0-236.75-0.11-355.12,0.15
	c-13.29,0.03-23.4-3.32-28.15-16.71C93.06,461,93.06,381.18,93.06,301.37z M485.72,529.95c0-73.47,0-146.1,0-219.23
	c-1.32,0.96-2.26,1.63-3.18,2.32c-53.48,40.1-106.96,80.2-160.43,120.3c-16.41,12.31-32.99,12.32-49.38,0.02
	c-53.47-40.1-106.95-80.2-160.45-120.28c-0.98-0.74-1.77-1.98-3.12-1.84c0,72.72,0,145.35,0,218.48c0.88-1.03,1.39-1.6,1.88-2.2
	c28.03-34.61,56.05-69.22,84.09-103.82c1-1.23,2.04-2.48,3.27-3.45c2.9-2.29,6.8-2.19,9.55,0.06c2.77,2.26,3.67,6.03,2.05,9.34
	c-0.63,1.29-1.53,2.48-2.45,3.61c-28.01,34.62-56.04,69.23-84.04,103.86c-1.08,1.34-2.52,2.51-3.03,4.3c118.1,0,235.89,0,354.24,0
	c-1.34-1.68-2.37-2.99-3.42-4.28c-28.02-34.61-56.04-69.23-84.05-103.85c-0.91-1.13-1.82-2.31-2.45-3.6c-1.63-3.33-0.77-7.07,2-9.35
	c2.75-2.26,6.63-2.36,9.56-0.11c1.04,0.8,1.95,1.8,2.78,2.83c5.71,7,11.39,14.04,17.08,21.06
	C439.23,472.51,462.22,500.91,485.72,529.95z M122.26,300.68c0.97,0.85,1.34,1.21,1.74,1.52c53.37,40.02,106.73,80.05,160.12,120.04
	c8.51,6.37,18.41,6.14,27.23-0.48c52.84-39.62,105.67-79.25,158.49-118.9c0.73-0.55,1.99-0.78,1.93-2.17
	C355.49,300.68,239.28,300.68,122.26,300.68z"/>
</svg>
