<svg id="Capa_1" data-name="Capa 1" xmlns="http://www.w3.org/2000/svg" viewBox="0 0 491.7 69.5"><defs><style>.cls-1,.cls-5{fill:#d57e0f;}.cls-2,.cls-3{fill:none;stroke:#1d1d1b;stroke-linecap:square;}.cls-2{stroke-linejoin:round;stroke-width:2.5px;}.cls-3{stroke-linejoin:bevel;stroke-width:3px;}.cls-4{fill:#1d1d1b;}.cls-5{font-size:70px;font-family:Kiona-Regular, Kiona;letter-spacing:0.01em;}.cls-6{fill:#fff;}</style></defs><polygon class="cls-1" points="214 55.6 232.6 15.6 250.3 55.6 253.8 55.6 232.8 7.4 210.4 55.6 214 55.6"/><path class="cls-2" d="M345.6,270.5V254.1h11.7s9.4,1.2,9.9,10.3-10.8,10.3-10.8,10.3,15.6-1.7,16.9,11.6S362,299.2,362,299.2H345.6V280.5" transform="translate(-175 -245.1)"/><path class="cls-3" d="M664.2,259.7s-3.8-6.8-13.1-5.5-8.2,9.5-8.2,9.5-.4,6.1,6.2,9.2" transform="translate(-175 -245.1)"/><path class="cls-3" d="M658.5,276.3a14,14,0,0,1,6.7,11.8c0,8.2-6.7,10.1-6.7,10.1" transform="translate(-175 -245.1)"/><path class="cls-3" d="M649.3,299s-7.7-1-9.1-9.9" transform="translate(-175 -245.1)"/><path class="cls-3" d="M200.7,259.8s-3.8-6.9-13.1-5.6-8.2,9.5-8.2,9.5-.4,6.1,6.2,9.3" transform="translate(-175 -245.1)"/><path class="cls-3" d="M195,276.3s6.7,3.8,6.7,11.8-6.7,10.2-6.7,10.2" transform="translate(-175 -245.1)"/><path class="cls-3" d="M185.8,299.1s-7.7-1-9.1-9.9" transform="translate(-175 -245.1)"/><path class="cls-4" d="M621.6,300.7V252.5h3.6v48.2Z" transform="translate(-175 -245.1)"/><path class="cls-4" d="M272.3,300.6V252.5h3.3v44.8h27v3.3Z" transform="translate(-175 -245.1)"/><path class="cls-4" d="M469.1,300.6l-19.9-24.2h5.9A24.8,24.8,0,0,0,464,275a12.2,12.2,0,0,0,4.3-3.6,8.8,8.8,0,0,0,1.9-5.3,8.9,8.9,0,0,0-1.6-4.9,10.3,10.3,0,0,0-4.4-3.8,14.7,14.7,0,0,0-6.7-1.5H444v44.7h-3.3V252.5h16.8a19.1,19.1,0,0,1,6.4,1.1,17.1,17.1,0,0,1,5.2,3.1,14.1,14.1,0,0,1,3.3,4.4,12.5,12.5,0,0,1,1.1,5,12.1,12.1,0,0,1-2.4,7.3,14.8,14.8,0,0,1-5.8,4.6,15.3,15.3,0,0,1-4.5,1.3,33.3,33.3,0,0,1-4.6.3l17.4,21Z" transform="translate(-175 -245.1)"/><path class="cls-4" d="M516.8,280a11.3,11.3,0,0,1,2.4,7.1,11.9,11.9,0,0,1-1.2,5.1,12.4,12.4,0,0,1-3.3,4.4,15.8,15.8,0,0,1-5.2,3,18.9,18.9,0,0,1-6.3,1H485.5V252.5h13.7c4.5,0,8.1,1.3,10.8,3.8a14.8,14.8,0,0,1,2.8,3.9,10.6,10.6,0,0,1,1,4.6,9.9,9.9,0,0,1-1.4,5.4,10.3,10.3,0,0,1-3.3,3.8l-.7.4,2.5.9A15.3,15.3,0,0,1,516.8,280Zm-27.9-6.5h10.3l3.3-.2a13.8,13.8,0,0,0,2.7-.8,9.3,9.3,0,0,0,3.6-2.8,6.9,6.9,0,0,0,1.8-4.9,8.6,8.6,0,0,0-1.3-4.3,9.1,9.1,0,0,0-3.9-3.3,14.1,14.1,0,0,0-6.1-1.3H488.9Zm20.9,22.3a11.3,11.3,0,0,0,4.5-3.8,8.8,8.8,0,0,0,1.5-4.9,8.2,8.2,0,0,0-1.8-5.2,11.1,11.1,0,0,0-4.3-3.5,23.5,23.5,0,0,0-9-1.5H488.9v20.4h14.3A14,14,0,0,0,509.8,295.8Z" transform="translate(-175 -245.1)"/><path class="cls-4" d="M531.1,300.6V252.5h31.1v3.4H534.4v19h21.7v3.4H534.4v18.9h27.8v3.4Z" transform="translate(-175 -245.1)"/><path class="cls-4" d="M602.6,300.6l-20-24.2h5.9a24.4,24.4,0,0,0,8.9-1.4,12.5,12.5,0,0,0,4.4-3.6,8.7,8.7,0,0,0,1.8-5.3,8.8,8.8,0,0,0-1.5-4.9,11.2,11.2,0,0,0-4.5-3.8,14,14,0,0,0-6.6-1.5H577.5v44.7h-3.3V252.5H591a18.5,18.5,0,0,1,6.3,1.1,16,16,0,0,1,5.2,3.1,14.1,14.1,0,0,1,3.3,4.4,11,11,0,0,1,1.1,5,12.1,12.1,0,0,1-2.4,7.3,13.5,13.5,0,0,1-5.8,4.6,15.6,15.6,0,0,1-4.4,1.3,34.8,34.8,0,0,1-4.7.3l17.4,21Z" transform="translate(-175 -245.1)"/><text class="cls-5" transform="translate(35.3 55.5)">o</text><rect class="cls-6" x="272.5" y="293.7" width="2.6" height="10.33" transform="translate(101.9 -351.6) rotate(42.9)"/></svg>