<svg id="Capa_1" data-name="Capa 1" xmlns="http://www.w3.org/2000/svg" viewBox="0 0 537.75 79.48"><defs><style>.cls-1,.cls-6{fill:#1d1d1b;}.cls-2{fill:#d57e0f;}.cls-3,.cls-4,.cls-5{fill:none;}.cls-4,.cls-5{stroke:#fff;stroke-miterlimit:10;}.cls-4{stroke-width:8px;}.cls-5{stroke-width:5px;}.cls-6{font-size:80px;font-family:Kiona-Regular, Kiona;}</style></defs><path class="cls-1" d="M207.69,273.39a11.25,11.25,0,0,1,2,6.44,11.71,11.71,0,0,1-1.44,5.64,14.06,14.06,0,0,1-4.16,4.68,21.82,21.82,0,0,1-13,4,23.48,23.48,0,0,1-7-1,20.25,20.25,0,0,1-6-3,13.26,13.26,0,0,1-5.52-8.24L176,280a9,9,0,0,0,4.32,7.2,14.91,14.91,0,0,0,4.88,2.44,20.51,20.51,0,0,0,5.92.84,17.53,17.53,0,0,0,10.8-3.28q4.25-3.12,4.24-7.36a7.78,7.78,0,0,0-1.56-4.64,12.92,12.92,0,0,0-4.36-3.68q-2.64-1.35-9.44-2.16c-.37-.05-1.72-.26-4-.64a21.08,21.08,0,0,1-6-1.76,16,16,0,0,1-6.16-5.08,11.59,11.59,0,0,1-2.24-6.84,11.05,11.05,0,0,1,1.48-5.56,15,15,0,0,1,4.2-4.6,20.5,20.5,0,0,1,6-3,23.8,23.8,0,0,1,7-1,21.89,21.89,0,0,1,13,4q4.63,3.52,5.44,8.16L206.13,255a8.13,8.13,0,0,0-1.16-3.84,11.77,11.77,0,0,0-3.08-3.35,15.86,15.86,0,0,0-5-2.45,20.56,20.56,0,0,0-5.84-.84,21,21,0,0,0-5.88.84,14.94,14.94,0,0,0-4.92,2.45,11.59,11.59,0,0,0-3.2,3.39A7.48,7.48,0,0,0,176,255a8.08,8.08,0,0,0,1.84,4.92,12.91,12.91,0,0,0,4.56,3.81,14.58,14.58,0,0,0,3.72,1.15c1.36.24,3.11.5,5.24.76l2.8.4a38.84,38.84,0,0,1,4.32.88,16.08,16.08,0,0,1,3.52,1.36A16.73,16.73,0,0,1,207.69,273.39Z" transform="translate(-172.37 -229.67)"/><path class="cls-2" d="M218.21,268.64a25.68,25.68,0,0,1,3.56-13.2,26.68,26.68,0,0,1,46,0,26.25,26.25,0,0,1,0,26.4,26.68,26.68,0,0,1-46,0A25.73,25.73,0,0,1,218.21,268.64Zm49.44,0a21.89,21.89,0,0,0-3.08-11.36,23.09,23.09,0,0,0-8.32-8.28,22.93,22.93,0,0,0-23,0,23.09,23.09,0,0,0-8.32,8.28A22.49,22.49,0,0,0,225,280a22.9,22.9,0,0,0,8.32,8.24,23.2,23.2,0,0,0,23,0,22.9,22.9,0,0,0,8.32-8.24A22,22,0,0,0,267.65,268.64Z" transform="translate(-172.37 -229.67)"/><path class="cls-1" d="M283.81,293.51v-52h3.6v48.4h29.2v3.6Z" transform="translate(-172.37 -229.67)"/><path class="cls-3" d="M375.25,263.91a13.48,13.48,0,0,0,2.88-.8,11.1,11.1,0,0,0,4-3,7.78,7.78,0,0,0,1.88-5.28,8.61,8.61,0,0,0-1.4-4.68,10.07,10.07,0,0,0-4.16-3.56,14.89,14.89,0,0,0-6.6-1.36H360.53v19h11.12A22.47,22.47,0,0,0,375.25,263.91Z" transform="translate(-172.37 -229.67)"/><path class="cls-3" d="M383,269.51a24.25,24.25,0,0,0-9.68-1.68h-12.8v22.08H376a15.52,15.52,0,0,0,7.2-1.6,12.36,12.36,0,0,0,4.8-4.12,9.43,9.43,0,0,0,1.68-5.32,9,9,0,0,0-2-5.64A12.1,12.1,0,0,0,383,269.51Z" transform="translate(-172.37 -229.67)"/><path d="M390.65,271.15a15.89,15.89,0,0,0-6.28-5q-1.12-.48-2.64-1l.72-.48a11.53,11.53,0,0,0,3.64-4.08,11.68,11.68,0,0,0,1.48-5.84,12,12,0,0,0-1.08-5,13,13,0,0,0-3.08-4.24q-4.32-4.08-11.6-4.08H356.93l-.08,52H376a20,20,0,0,0,6.84-1.16,17.42,17.42,0,0,0,5.64-3.24,14.62,14.62,0,0,0,3.56-4.76,13,13,0,0,0,1.24-5.48A12.4,12.4,0,0,0,390.65,271.15Zm-30.12-26h11.28a14.89,14.89,0,0,1,6.6,1.36,10.07,10.07,0,0,1,4.16,3.56,8.61,8.61,0,0,1,1.4,4.68,7.78,7.78,0,0,1-1.88,5.28,11.1,11.1,0,0,1-4,3,13.48,13.48,0,0,1-2.88.8,22.47,22.47,0,0,1-3.6.24H360.53Zm27.44,39a12.36,12.36,0,0,1-4.8,4.12,15.52,15.52,0,0,1-7.2,1.6H360.53V267.83h12.8a24.25,24.25,0,0,1,9.68,1.68,12.1,12.1,0,0,1,4.68,3.72,9,9,0,0,1,2,5.64A9.43,9.43,0,0,1,388,284.19Z" transform="translate(-172.37 -229.67)"/><path class="cls-2" d="M412.37,276.71l-1.68,3.6-6.16,13.2h-4L425,240.87l23.12,52.64h-3.92l-5.84-13.2-1.6-3.6m-.51,0h.51l-11.92-26.95-12.48,26.95" transform="translate(-172.37 -229.67)"/><path class="cls-1" d="M490.13,293.51l-21.6-26.24h6.4a25.62,25.62,0,0,0,9.6-1.51,12.93,12.93,0,0,0,4.72-3.89,9.18,9.18,0,0,0,2-5.72,9.45,9.45,0,0,0-1.68-5.32,12.44,12.44,0,0,0-4.8-4.12,15.65,15.65,0,0,0-7.2-1.6H463v48.4h-3.6v-52h18.16a20.16,20.16,0,0,1,6.88,1.16,17,17,0,0,1,5.6,3.32,14.9,14.9,0,0,1,3.56,4.72,12.87,12.87,0,0,1-1.4,13.32,15.24,15.24,0,0,1-6.24,5,16.27,16.27,0,0,1-4.84,1.4,41.86,41.86,0,0,1-5,.28l18.8,22.8Z" transform="translate(-172.37 -229.67)"/><path class="cls-1" d="M542.65,271.15a12.4,12.4,0,0,1,2.6,7.72,13,13,0,0,1-1.24,5.48,14.62,14.62,0,0,1-3.56,4.76,17.42,17.42,0,0,1-5.64,3.24,20,20,0,0,1-6.84,1.16H508.85l.08-52h14.88q7.28,0,11.6,4.08a13,13,0,0,1,3.08,4.24,12,12,0,0,1,1.08,5,11.79,11.79,0,0,1-1.48,5.84,11.53,11.53,0,0,1-3.64,4.08l-.72.48q1.51.48,2.64,1A15.89,15.89,0,0,1,542.65,271.15Zm-30.12-7h11.12a22.47,22.47,0,0,0,3.6-.24,13.48,13.48,0,0,0,2.88-.8,11.1,11.1,0,0,0,4-3,7.78,7.78,0,0,0,1.88-5.28,8.61,8.61,0,0,0-1.4-4.68,10.13,10.13,0,0,0-4.16-3.56,14.89,14.89,0,0,0-6.6-1.36H512.53Zm22.64,24.16a12.36,12.36,0,0,0,4.8-4.12,9.43,9.43,0,0,0,1.68-5.32,9,9,0,0,0-2-5.64,12.1,12.1,0,0,0-4.68-3.72,24.25,24.25,0,0,0-9.68-1.68h-12.8v22.08H528A15.52,15.52,0,0,0,535.17,288.31Z" transform="translate(-172.37 -229.67)"/><path class="cls-1" d="M635.49,293.51l-21.6-26.24h6.4a25.62,25.62,0,0,0,9.6-1.51,12.93,12.93,0,0,0,4.72-3.89,9.18,9.18,0,0,0,2-5.72,9.45,9.45,0,0,0-1.68-5.32,12.44,12.44,0,0,0-4.8-4.12,15.65,15.65,0,0,0-7.2-1.6H608.37v48.4h-3.6v-52h18.16a20.16,20.16,0,0,1,6.88,1.16,17,17,0,0,1,5.6,3.32,14.9,14.9,0,0,1,3.56,4.72,12.87,12.87,0,0,1-1.4,13.32,15.24,15.24,0,0,1-6.24,5,16.27,16.27,0,0,1-4.84,1.4,41.86,41.86,0,0,1-5,.28l18.8,22.8Z" transform="translate(-172.37 -229.67)"/><path class="cls-1" d="M655.17,293.51v-52h3.6v52Z" transform="translate(-172.37 -229.67)"/><path class="cls-1" d="M708.08,273.39a11.25,11.25,0,0,1,2,6.44,11.71,11.71,0,0,1-1.44,5.64,14,14,0,0,1-4.16,4.68,21.82,21.82,0,0,1-13,4,23.48,23.48,0,0,1-7-1,20.25,20.25,0,0,1-6-3,13.26,13.26,0,0,1-5.52-8.24l3.44-1.92a9,9,0,0,0,4.32,7.2,15,15,0,0,0,4.88,2.44,20.51,20.51,0,0,0,5.92.84,17.53,17.53,0,0,0,10.8-3.28q4.25-3.12,4.24-7.36a7.78,7.78,0,0,0-1.56-4.64,12.92,12.92,0,0,0-4.36-3.68c-1.76-.9-4.9-1.62-9.44-2.16-.37-.05-1.72-.26-4-.64a21.18,21.18,0,0,1-6-1.76,16,16,0,0,1-6.16-5.08,11.59,11.59,0,0,1-2.24-6.84,11.16,11.16,0,0,1,1.48-5.56,15,15,0,0,1,4.2-4.6,20.5,20.5,0,0,1,6-3,23.8,23.8,0,0,1,7-1,21.89,21.89,0,0,1,13,4q4.65,3.52,5.44,8.16L706.52,255a8.13,8.13,0,0,0-1.16-3.84,11.62,11.62,0,0,0-3.08-3.35,15.86,15.86,0,0,0-5-2.45,20.51,20.51,0,0,0-5.84-.84,21.05,21.05,0,0,0-5.88.84,14.94,14.94,0,0,0-4.92,2.45,11.73,11.73,0,0,0-3.2,3.39,7.58,7.58,0,0,0-1.12,3.88A8.14,8.14,0,0,0,678.2,260a12.91,12.91,0,0,0,4.56,3.81,14.58,14.58,0,0,0,3.72,1.15c1.36.24,3.11.5,5.24.76l2.8.4a37.93,37.93,0,0,1,4.32.88,16.08,16.08,0,0,1,3.52,1.36A16.64,16.64,0,0,1,708.08,273.39Z" transform="translate(-172.37 -229.67)"/><line class="cls-4" x1="74.68" y1="6.45" x2="74.68" y2="69.23"/><line class="cls-4" x1="70.08" y1="6.45" x2="70.08" y2="69.23"/><line class="cls-5" x1="392.63" y1="1.53" x2="392.63" y2="73.88"/><text class="cls-6" transform="translate(377.17 63.48)">E</text></svg>