<?xml version="1.0" encoding="utf-8"?>
<!-- Generator: Adobe Illustrator 25.3.1, SVG Export Plug-In . SVG Version: 6.00 Build 0)  -->
<svg version="1.1" id="Capa_1" xmlns="http://www.w3.org/2000/svg" xmlns:xlink="http://www.w3.org/1999/xlink" x="0px" y="0px"
	 viewBox="0 0 595.3 841.9" style="enable-background:new 0 0 595.3 841.9;" xml:space="preserve">
<style type="text/css">
	.st0{fill:#D57E0F;}
</style>
<g>
	<path class="st0" d="M95.8,376.7v3.5c0,0-14.9,3.2-16.2,19.6c0,0-1.4,16.5,16.2,21.6v3.6c0,0-19.7-3.8-19.6-25.2
		C76.2,399.8,76.6,381.2,95.8,376.7z"/>
	<path class="st0" d="M106.3,376.7v3.5c0,0,14.9,3.2,16.2,19.6c0,0,1.4,16.5-16.2,21.6v3.6c0,0,19.7-3.8,19.6-25.2
		C125.9,399.8,125.6,381.2,106.3,376.7z"/>
</g>
<g>
	<path d="M374.2,424.8c-0.1,0-0.2,0-0.2,0l-18.1,0v-22.2h3.5v18.7H374c0.1,0,4.8,0.1,7.5-2.9c1.7-1.8,2.4-4.6,2.1-8.1
		c-0.3-3.1-1.5-5.5-3.6-7.2c-4.3-3.5-11.8-2.9-11.8-2.9c0-0.5,0-2.8,0-3.5c0,0,0,0,0,0c0.5-0.1,9.5-1.1,9.2-8.4
		c-0.3-7.2-7.3-8.5-8.3-8.7h-9.8v16.4h-3.5v-19.9h13.5c3.7,0.4,11.1,3.5,11.5,12c0.2,4.4-1.9,7.4-4.7,9.3c2,0.5,4.1,1.5,6,3
		c2.8,2.3,4.4,5.5,4.8,9.5c0.5,4.6-0.6,8.2-3,10.8C380.6,424.6,375.3,424.8,374.2,424.8z"/>
</g>
<g>
	<path d="M233.4,424.8c-0.1,0-0.2,0-0.2,0l-18.1,0v-22.2h3.5v18.7h14.6c0.1,0,4.8,0.1,7.5-2.9c1.7-1.8,2.4-4.6,2.1-8.1
		c-0.3-3.1-1.5-5.5-3.6-7.2c-4.3-3.5-11.8-2.9-11.8-2.9c0-0.5,0-2.8,0-3.5c0,0,0,0,0,0c0.5-0.1,9.5-1.1,9.2-8.4
		c-0.3-7.2-7.3-8.5-8.3-8.7h-9.8v16.4h-3.5v-19.9h13.5c3.7,0.4,11.1,3.5,11.5,12c0.2,4.4-1.9,7.4-4.7,9.3c2,0.5,4.1,1.5,6,3
		c2.8,2.3,4.4,5.5,4.8,9.5c0.5,4.6-0.6,8.2-3,10.8C239.8,424.6,234.5,424.8,233.4,424.8z"/>
</g>
<g>
	<g>
		<path d="M513.1,399.1l-1.6-0.7c-7.1-3.4-7.3-9.7-7.2-10.8c-0.1-1.3-0.2-9.8,9.8-11.2c10.3-1.5,14.7,6.1,14.8,6.4l0.9,1.5l-3.1,1.7
			l-0.9-1.5c-0.2-0.3-3.5-5.8-11.3-4.6c-7.3,1-6.9,6.9-6.8,7.6l0,0.3c0,0.2-0.2,5,5.2,7.6l1.6,0.7L513.1,399.1z"/>
	</g>
	<g>
		<path d="M520.4,424.3l-1-3.4l1.7-0.5c0.2-0.1,5.5-1.7,5.5-8.4c0-6.9-5.6-10.2-5.9-10.3l-1.5-0.9l1.7-3l1.5,0.9
			c0.3,0.2,7.6,4.4,7.6,13.3c0,7.5-5.2,11-8,11.8L520.4,424.3z"/>
	</g>
	<g>
		<path d="M514,424.9l-1.7-0.2c-3.1-0.4-9.3-3.4-10.6-11.4l-0.3-1.7l3.5-0.5l0.3,1.7c1.2,7.4,7.4,8.4,7.6,8.4l1.7,0.3L514,424.9z"/>
	</g>
</g>
<g>
	<g>
		<path d="M49.6,399.2l-1.6-0.7c-7.1-3.4-7.3-9.7-7.2-10.8c-0.1-1.3-0.2-9.8,9.8-11.2c10.3-1.5,14.7,6.1,14.8,6.4l0.9,1.5l-3.1,1.7
			l-0.9-1.5c-0.2-0.3-3.5-5.8-11.3-4.6c-7.3,1-6.9,6.9-6.8,7.6l0,0.3c0,0.2-0.2,5,5.2,7.6l1.6,0.7L49.6,399.2z"/>
	</g>
	<g>
		<path d="M57,424.3l-1-3.4l1.7-0.5c0.2-0.1,5.5-1.7,5.5-8.4c0-6.9-5.6-10.2-5.9-10.3l-1.5-0.9l1.7-3l1.5,0.9
			c0.3,0.2,7.6,4.4,7.6,13.3c0,7.5-5.2,11-8,11.8L57,424.3z"/>
	</g>
	<g>
		<path d="M50.5,425l-1.7-0.2c-3.1-0.4-9.3-3.4-10.6-11.4l-0.3-1.7l3.5-0.5l0.3,1.7c1.2,7.4,7.4,8.4,7.6,8.4l1.7,0.3L50.5,425z"/>
	</g>
</g>
<g>
	<path d="M486.7,424.6v-48.2h3.6v48.2H486.7z"/>
</g>
<path d="M135.5,424.6v-48.1h3.3v44.8h27v3.3H135.5z"/>
<path d="M340.4,424.6l-20-24.3h5.9c3.7,0,6.6-0.5,8.9-1.4c1.7-0.8,3.1-2,4.4-3.6c1.2-1.6,1.8-3.4,1.8-5.3c0-1.7-0.5-3.4-1.6-4.9
	s-2.5-2.8-4.4-3.8c-1.9-1-4.1-1.5-6.7-1.5h-13.5v44.8H312v-48.1h16.8c2.3,0,4.4,0.4,6.4,1.1c2,0.7,3.7,1.7,5.2,3.1
	c1.4,1.3,2.5,2.7,3.3,4.4c0.8,1.6,1.1,3.3,1.1,5c0,2.7-0.8,5.1-2.4,7.3c-1.6,2.1-3.6,3.7-5.8,4.6c-1.5,0.7-3,1.1-4.5,1.3
	c-1.5,0.2-3,0.3-4.6,0.3l17.4,21.1H340.4z"/>
<path d="M471.2,424.6l-20-24.3h5.9c3.7,0,6.6-0.5,8.9-1.4c1.7-0.8,3.1-2,4.4-3.6c1.2-1.6,1.8-3.4,1.8-5.3c0-1.7-0.5-3.4-1.6-4.9
	s-2.5-2.8-4.4-3.8c-1.9-1-4.1-1.5-6.7-1.5h-13.5v44.8h-3.3v-48.1h16.8c2.3,0,4.4,0.4,6.4,1.1c2,0.7,3.7,1.7,5.2,3.1
	c1.4,1.3,2.5,2.7,3.3,4.4c0.8,1.6,1.1,3.3,1.1,5c0,2.7-0.8,5.1-2.4,7.3s-3.6,3.7-5.8,4.6c-1.5,0.7-3,1.1-4.5,1.3
	c-1.5,0.2-3,0.3-4.6,0.3l17.4,21.1H471.2z"/>
<g>
	<path d="M431.7,421.6v3.2h-33.4v-48.4h32.4v3.2h-28.9v19.1h25.8v3.1h-25.8v19.9H431.7z"/>
</g>
<g>
	<polygon class="st0" points="293.6,407.8 300.9,424.6 297.4,424.6 290,407.8 	"/>
	<polygon class="st0" points="288.2,403.8 279.7,384.6 270.8,403.8 267.2,403.8 279.9,376.5 291.8,403.8 	"/>
	<polygon class="st0" points="268.9,407.8 261.1,424.6 257.5,424.6 265.3,407.8 	"/>
</g>
</svg>
